<svg xmlns="http://www.w3.org/2000/svg" viewBox="0 0 32 32"><defs><style>.cls-1{fill:#fff;}</style></defs><title>Instagram</title><g id="Instagram"><path class="cls-1" d="M31.89,22.6a9.53,9.53,0,0,1-2.58,6.7,9.49,9.49,0,0,1-6.71,2.59C20,32,12,32,9.4,31.89A9.58,9.58,0,0,1,2.69,29.3,9.49,9.49,0,0,1,.11,22.6C0,20,0,12,.11,9.4A9.54,9.54,0,0,1,2.69,2.69,9.53,9.53,0,0,1,9.4.11C12,0,20,0,22.6.11A9.58,9.58,0,0,1,29.31,2.7a9.49,9.49,0,0,1,2.58,6.7C32,12,32,20,31.89,22.6ZM29.12,16c0-2.33.2-7.33-.64-9.43a5.38,5.38,0,0,0-3-3c-2.1-.83-7.11-.65-9.44-.65s-7.32-.19-9.43.65a5.38,5.38,0,0,0-3,3c-.83,2.1-.64,7.1-.64,9.43s-.2,7.33.64,9.43a5.35,5.35,0,0,0,3,3c2.1.83,7.11.65,9.43.65s7.33.19,9.44-.65a5.41,5.41,0,0,0,3-3C29.32,23.33,29.12,18.33,29.12,16Zm-4.91,0A8.21,8.21,0,1,1,16,7.8,8.19,8.19,0,0,1,24.21,16Zm-2.87,0A5.34,5.34,0,1,0,16,21.33,5.34,5.34,0,0,0,21.34,16Zm3.2-6.63a1.91,1.91,0,1,1,1.92-1.91A1.9,1.9,0,0,1,24.54,9.37Z"/></g></svg>